<svg width="281" height="83" viewBox="0 0 281 83" fill="none" xmlns="http://www.w3.org/2000/svg">
<path d="M93.3301 10.4062L101.697 31.2891L110.064 10.4062H114.441V36H111.066V26.0332L111.383 15.2754L102.98 36H100.396L92.0117 15.3281L92.3457 26.0332V36H88.9707V10.4062H93.3301Z" fill="#DC143C"/>
<path d="M123.219 32.8242L126.172 23.3203H128.492L123.395 37.957C122.605 40.0664 121.352 41.1211 119.633 41.1211L119.223 41.0859L118.414 40.9336V39.1758L119 39.2227C119.734 39.2227 120.305 39.0742 120.711 38.7773C121.125 38.4805 121.465 37.9375 121.73 37.1484L122.211 35.8594L117.688 23.3203H120.055L123.219 32.8242Z" fill="white"/>
<path d="M138.344 21.5H144.375V53.7188C144.375 58.0729 143.062 61.4792 140.438 63.9375C137.833 66.3958 134.354 67.625 130 67.625C125.479 67.625 121.958 66.4688 119.438 64.1562C116.917 61.8438 115.656 58.6042 115.656 54.4375H121.656C121.656 57.0417 122.365 59.0729 123.781 60.5312C125.219 61.9896 127.292 62.7188 130 62.7188C132.479 62.7188 134.479 61.9375 136 60.375C137.542 58.8125 138.323 56.625 138.344 53.8125V21.5Z" fill="#DC143C"/>
<path d="M151.445 54.0859C151.445 51.6016 151.93 49.3672 152.898 47.3828C153.883 45.3984 155.242 43.8672 156.977 42.7891C158.727 41.7109 160.719 41.1719 162.953 41.1719C166.406 41.1719 169.195 42.3672 171.32 44.7578C173.461 47.1484 174.531 50.3281 174.531 54.2969V54.6016C174.531 57.0703 174.055 59.2891 173.102 61.2578C172.164 63.2109 170.812 64.7344 169.047 65.8281C167.297 66.9219 165.281 67.4688 163 67.4688C159.562 67.4688 156.773 66.2734 154.633 63.8828C152.508 61.4922 151.445 58.3281 151.445 54.3906V54.0859ZM155.805 54.6016C155.805 57.4141 156.453 59.6719 157.75 61.375C159.062 63.0781 160.812 63.9297 163 63.9297C165.203 63.9297 166.953 63.0703 168.25 61.3516C169.547 59.6172 170.195 57.1953 170.195 54.0859C170.195 51.3047 169.531 49.0547 168.203 47.3359C166.891 45.6016 165.141 44.7344 162.953 44.7344C160.812 44.7344 159.086 45.5859 157.773 47.2891C156.461 48.9922 155.805 51.4297 155.805 54.6016ZM195.625 64.4922C193.938 66.4766 191.461 67.4688 188.195 67.4688C185.492 67.4688 183.43 66.6875 182.008 65.125C180.602 63.5469 179.891 61.2188 179.875 58.1406V41.6406H184.211V58.0234C184.211 61.8672 185.773 63.7891 188.898 63.7891C192.211 63.7891 194.414 62.5547 195.508 60.0859V41.6406H199.844V67H195.719L195.625 64.4922ZM218.711 45.5312C218.055 45.4219 217.344 45.3672 216.578 45.3672C213.734 45.3672 211.805 46.5781 210.789 49V67H206.453V41.6406H210.672L210.742 44.5703C212.164 42.3047 214.18 41.1719 216.789 41.1719C217.633 41.1719 218.273 41.2812 218.711 41.5V45.5312ZM226.82 41.6406L226.961 44.8281C228.898 42.3906 231.43 41.1719 234.555 41.1719C239.914 41.1719 242.617 44.1953 242.664 50.2422V67H238.328V50.2188C238.312 48.3906 237.891 47.0391 237.062 46.1641C236.25 45.2891 234.977 44.8516 233.242 44.8516C231.836 44.8516 230.602 45.2266 229.539 45.9766C228.477 46.7266 227.648 47.7109 227.055 48.9297V67H222.719V41.6406H226.82ZM264.859 67C264.609 66.5 264.406 65.6094 264.25 64.3281C262.234 66.4219 259.828 67.4688 257.031 67.4688C254.531 67.4688 252.477 66.7656 250.867 65.3594C249.273 63.9375 248.477 62.1406 248.477 59.9688C248.477 57.3281 249.477 55.2812 251.477 53.8281C253.492 52.3594 256.32 51.625 259.961 51.625H264.18V49.6328C264.18 48.1172 263.727 46.9141 262.82 46.0234C261.914 45.1172 260.578 44.6641 258.812 44.6641C257.266 44.6641 255.969 45.0547 254.922 45.8359C253.875 46.6172 253.352 47.5625 253.352 48.6719H248.992C248.992 47.4062 249.438 46.1875 250.328 45.0156C251.234 43.8281 252.453 42.8906 253.984 42.2031C255.531 41.5156 257.227 41.1719 259.07 41.1719C261.992 41.1719 264.281 41.9062 265.938 43.375C267.594 44.8281 268.453 46.8359 268.516 49.3984V61.0703C268.516 63.3984 268.812 65.25 269.406 66.625V67H264.859ZM257.664 63.6953C259.023 63.6953 260.312 63.3438 261.531 62.6406C262.75 61.9375 263.633 61.0234 264.18 59.8984V54.6953H260.781C255.469 54.6953 252.812 56.25 252.812 59.3594C252.812 60.7188 253.266 61.7812 254.172 62.5469C255.078 63.3125 256.242 63.6953 257.664 63.6953ZM280.023 67H275.688V31H280.023V67Z" fill="#FFFCFC"/>
<g clip-path="url(#clip0)">
<path d="M55.5541 81.7842H5.98904C5.12821 81.7842 4.43033 81.051 4.43033 80.1466V2.85345C4.43033 1.94904 5.12821 1.21582 5.98904 1.21582H55.5541C58.9974 1.21582 61.7886 4.14854 61.7886 7.76617V75.234C61.7886 78.8515 58.9974 81.7842 55.5541 81.7842V81.7842Z" fill="#DC143C"/>
<path d="M5.98904 1.21582C5.12821 1.21582 4.43033 1.94904 4.43033 2.85345V80.1467C4.43033 81.0511 5.12821 81.7843 5.98904 81.7843H12.2237V1.21582H5.98904Z" fill="#4C4D4E"/>
<path d="M55.5541 1.21582H52.125C55.5683 1.21582 58.3596 4.14854 58.3596 7.76617V75.234C58.3596 78.8516 55.5682 81.7842 52.125 81.7842H55.5541C58.9974 81.7842 61.7887 78.8515 61.7887 75.234V7.76617C61.7887 4.14854 58.9974 1.21582 55.5541 1.21582V1.21582Z" fill="#DC143C"/>
<path d="M51.5015 11.3689V31.0198H20.3285V11.3689H51.5015Z" fill="#F9F6F9"/>
<path d="M73.5823 77.3085L71.4523 81.7842L69.3222 77.3085C68.6729 75.9442 68.3348 74.4398 68.3348 72.9144V11.3687H74.5694V72.9144C74.5697 74.4398 74.2316 75.9442 73.5823 77.3085Z" fill="#818181"/>
<path d="M72.0758 11.3687V72.9144C72.0758 74.4397 71.7377 75.944 71.0884 77.3083L70.2054 79.1638L71.4523 81.784L73.5823 77.3083C74.2316 75.944 74.5697 74.4397 74.5697 72.9144V11.3687H72.0758Z" fill="#595959"/>
<path d="M68.335 1.21582H74.5697V11.3687H68.335V1.21582Z" fill="#4C4D4E"/>
<path d="M72.0758 1.21582H74.5697V11.3687H72.0758V1.21582Z" fill="black"/>
<path d="M25.3163 18.6436H46.5139C47.153 18.6436 47.6711 18.0992 47.6711 17.4277C47.6711 16.7563 47.153 16.2119 46.5139 16.2119H25.3163C24.6772 16.2119 24.159 16.7563 24.159 17.4277C24.159 18.0992 24.6772 18.6436 25.3163 18.6436Z" fill="black"/>
<path d="M25.3163 26.1764H46.5139C47.153 26.1764 47.6711 25.6321 47.6711 24.9606C47.6711 24.2892 47.153 23.7448 46.5139 23.7448H25.3163C24.6772 23.7448 24.159 24.2892 24.159 24.9606C24.159 25.6321 24.6772 26.1764 25.3163 26.1764Z" fill="black"/>
<path d="M43.7083 65.1753H28.1219C27.4828 65.1753 26.9646 65.7196 26.9646 66.3911C26.9646 67.0625 27.4828 67.6069 28.1219 67.6069H43.7083C44.3474 67.6069 44.8655 67.0625 44.8655 66.3911C44.8655 65.7196 44.3476 65.1753 43.7083 65.1753Z" fill="black"/>
<path d="M43.7083 70.4155H28.1219C27.4828 70.4155 26.9646 70.9598 26.9646 71.6313C26.9646 72.3027 27.4828 72.8471 28.1219 72.8471H43.7083C44.3474 72.8471 44.8655 72.3027 44.8655 71.6313C44.8655 70.9598 44.3476 70.4155 43.7083 70.4155Z" fill="black"/>
<path d="M55.5541 0H5.98904C4.49143 0 3.2731 1.28002 3.2731 2.85345V22.2323C3.2731 22.9038 3.79123 23.4481 4.43033 23.4481C5.06943 23.4481 5.58756 22.9038 5.58756 22.2323V2.85345C5.58756 2.62082 5.76762 2.43164 5.98904 2.43164H11.0665V80.5684H5.98904C5.76762 80.5684 5.58756 80.3792 5.58756 80.1466V27.9096C5.58756 27.2381 5.06943 26.6937 4.43033 26.6937C3.79123 26.6937 3.2731 27.2381 3.2731 27.9096V80.1466C3.2731 81.72 4.49143 83 5.98904 83H55.5541C59.63 83 62.9459 79.5161 62.9459 75.2338V65.6321C62.9459 64.9606 62.4277 64.4163 61.7886 64.4163C61.1495 64.4163 60.6314 64.9606 60.6314 65.6321V75.2338C60.6314 78.1753 58.3537 80.5684 55.5541 80.5684H13.3809V2.43164H55.5541C58.3538 2.43164 60.6314 4.8247 60.6314 7.76617V59.9573C60.6314 60.6287 61.1495 61.1731 61.7886 61.1731C62.4277 61.1731 62.9459 60.6287 62.9459 59.9573V7.76617C62.9459 3.48389 59.6299 0 55.5541 0V0Z" fill="black"/>
<path d="M52.6589 31.0196V11.3687C52.6589 10.6973 52.1408 10.1529 51.5017 10.1529H20.3286C19.6895 10.1529 19.1714 10.6973 19.1714 11.3687V31.0196C19.1714 31.6911 19.6895 32.2354 20.3286 32.2354H51.5017C52.1408 32.2354 52.6589 31.6911 52.6589 31.0196ZM50.3444 29.8038H21.4858V12.5845H50.3444V29.8038Z" fill="black"/>
<path d="M74.5697 0H68.335C67.6959 0 67.1778 0.544363 67.1778 1.21582V11.3687V72.9145C67.1778 74.6198 67.5614 76.3271 68.2873 77.8522L70.4174 82.3279C70.6135 82.7398 71.0141 83 71.4524 83C71.8908 83 72.2915 82.7398 72.4874 82.3279L74.6174 77.8522C75.3433 76.3271 75.7269 74.6196 75.7269 72.9145V26.1922C75.7269 25.5207 75.2088 24.9764 74.5697 24.9764C73.9306 24.9764 73.4125 25.5207 73.4125 26.1922V72.9144C73.4125 74.244 73.1133 75.5754 72.5473 76.7646L71.4524 79.0653L70.3574 76.7646C69.7914 75.5754 69.4922 74.2438 69.4922 72.9144V12.5846H73.4125V20.514C73.4125 21.1854 73.9306 21.7298 74.5697 21.7298C75.2088 21.7298 75.7269 21.1854 75.7269 20.514V1.21582C75.7269 0.544363 75.2088 0 74.5697 0V0ZM69.4922 10.1529V2.43164H73.4125V10.1529H69.4922Z" fill="black"/>
</g>
<defs>
<clipPath id="clip0">
<rect width="79" height="83" fill="white"/>
</clipPath>
</defs>
</svg>
