<?xml version="1.0"?>
<svg xmlns="http://www.w3.org/2000/svg" xmlns:xlink="http://www.w3.org/1999/xlink" xmlns:svgjs="http://svgjs.com/svgjs" version="1.1" width="512" height="512" x="0" y="0" viewBox="0 0 60 60" style="enable-background:new 0 0 512 512" xml:space="preserve" class=""><g><g xmlns="http://www.w3.org/2000/svg" id="Page-1" fill="none" fill-rule="evenodd"><g id="033---Pencil-Add"><path id="Path" d="m50.17 51.51-6.66 6.66c-.527218.5326525-1.2455485.8323547-1.995.8323547s-1.467782-.2997022-1.995-.8323547l-5.33-5.33 10.65-10.65 5.33 5.33c.5326525.527218.8323547 1.2455485.8323547 1.995s-.2997022 1.467782-.8323547 1.995z" fill="#000000" data-original="#c6d8fb" style="" class=""/><path id="Path" d="m50.17 47.52-5.33-5.33-1.5 1.5 3.83 3.83c.5326525.527218.8323547 1.2455485.8323547 1.995s-.2997022 1.467782-.8323547 1.995l-6.66 6.66c-.1495657.1490546-.3156382.2805705-.495.392 1.1119811.7085374 2.5676134.5452734 3.495-.392l6.66-6.66c.5326525-.527218.8323547-1.2455485.8323547-1.995s-.2997022-1.467782-.8323547-1.995z" fill="#000000" data-original="#a4c3fd" style="" class=""/><path id="Path" d="m40.85 38.2-10.65 10.65h-.01l-24.33-24.34c-.10349266-.0982328-.19420598-.2091047-.27-.33v-.01l10.58-10.58h.01c.1208953.075794.2317672.1665073.33.27z" fill="#e8edfc" data-original="#e8edfc" style="" class=""/><path id="Path" d="m40.85 38.2-24.34-24.34c-.0982328-.1034927-.2091047-.194206-.33-.27h-.01l-1.465 1.465 24.119 24.12" fill="#cad9fc" data-original="#cad9fc" style="" class=""/><path id="Path" d="m16.17 13.59-10.58 10.58c-.07971301-.1127293-.14051076-.2377024-.18-.37l-1.95-5.56.09-.03 6.66-6.66.03-.09 5.56 1.95c.1322976.0394892.2572707.100287.37.18z" fill="#e8edfc" data-original="#e8edfc" style="" class=""/><path id="Path" d="m10.24 11.46-.03.09-6.66 6.66-.09.03-2.36-6.76c-.22500197-.6760705-.0489059-1.4212381.45492798-1.92507202.50383389-.50383388 1.24900155-.67992996 1.92507202-.45492798z" fill="#000000" data-original="#c6d8fb" style="" class=""/><path id="Rectangle" d="m29.99 42.699h15.061v5.643h-15.061z" fill="#c97100" transform="matrix(.707 -.707 .707 .707 -21.199 39.863)" data-original="#a4c2f7" style="" class=""/><path id="Path" d="m44.84 42.19-3.99-3.99-1.5 1.5 3.475 3.475z" fill="#000000" data-original="#7facfa" style="" class=""/><circle id="Oval" cx="45" cy="15" fill="#000000" r="14" data-original="#c6d8fb" style="" class=""/><path id="Path" d="m45 1c-.501124.00084103-1.0018425.02854746-1.5.083 7.1005043.77663505 12.477794 6.77414878 12.477794 13.917 0 7.1428512-5.3772897 13.1403649-12.477794 13.917 5.1556805.5638557 10.2006402-1.7687254 13.1106632-6.0618293s3.2082338-9.8432051.7749798-14.423407c-2.433254-4.58020193-7.1992273-7.43993129-12.385643-7.4317637z" fill="#000000" data-original="#a4c3fd" style="" class=""/><path id="Path" d="m52 13h-5v-5c0-1.1045695-.8954305-2-2-2s-2 .8954305-2 2v5h-5c-1.1045695 0-2 .8954305-2 2s.8954305 2 2 2h5v5c0 1.1045695.8954305 2 2 2s2-.8954305 2-2v-5h5c1.1045695 0 2-.8954305 2-2s-.8954305-2-2-2z" fill="#e8edfc" data-original="#e8edfc" style="" class=""/><path id="Path" d="m42.52 58.17-5.33-5.33-3.99-3.99h-.01l-24.33-24.34c-.10349266-.0982328-.19420598-.2091047-.27-.33v-.01c-.07971301-.1127293-.14051076-.2377024-.18-.37l-1.95-5.56-2.36-6.76c-.23862825-.7057291-.03141209-1.48574427.526-1.98l-1.146-.4c-.67607047-.22500198-1.42123813-.0489059-1.92507202.45492798-.50383388.50383392-.67992995 1.24900152-.45492798 1.92507202l2.36 6.76 1.95 5.56c.03948924.1322976.10028699.2572707.18.37v.01c.07579402.1208953.16650734.2317672.27.33l24.33 24.34h.01l3.99 3.99 5.33 5.33c.342271.3417398.7680577.5879031 1.235.714.051.015.1.034.152.046.0942322.0185559.1893585.0322408.285.041.074.009.148.019.222.022s.173 0 .26-.006.17-.012.254-.024.157-.027.235-.045c.093-.022.185-.051.276-.082.068-.024.136-.047.2-.076.1029494-.0468656.2031151-.0996195.3-.158.027-.017.054-.033.082-.048-.1818655-.1073411-.3500861-.2362767-.501-.384z" fill="#ffffff" data-original="#ffffff" style=""/><path id="Rectangle" d="m13.174 28.83h2v8h-2z" fill="#ffffff" transform="matrix(.707 -.707 .707 .707 -19.063 19.637)" data-original="#ffffff" style=""/><g fill="#428dff"><path id="Path" d="m14.194 33.83c-.5522847.0027614-1.0022386-.4427153-1.005-.995s.4427153-1.0022386.995-1.005h.01c.5522847 0 1 .4477153 1 1s-.4477153 1-1 1z" fill="#000000" data-original="#428dff" style="" class=""/><path id="Shape" d="m.848 8.848c-.7784527.7748112-1.04704467 1.9256424-.692 2.965l4.309 12.317c.1434686.4091652.37686076.7809524.683 1.088l5.491 5.491c.2458029.2792992.6263432.3990432.9877917.3108267.3614484-.0882166.6440376-.3698065.7335339-.7309402.0894964-.3611337-.0288988-.7420958-.3073256-.9888865l-5.088-5.093 1.916-1.916 23.228 23.228-1.916 1.916-12.483-12.483c-.3960542-.3530417-.9988837-.3353217-1.3735169.0403743-.3746331.3756959-.3906454.9785732-.0364831 1.3736257l22.509 22.514c.7172222.7177655 1.6903104 1.1210477 2.705 1.1210477s1.9877778-.4032822 2.705-1.1210477l6.659-6.659c.7177655-.7172222 1.1210477-1.6903104 1.1210477-2.705s-.4032822-1.9877778-1.1210477-2.705l-5.328-5.329-4-4-24.332-24.334c-.3067591-.3060134-.6781923-.5393978-1.087-.683l-12.331-4.314c-1.03641612-.34933181-2.18129058-.07901423-2.952.697zm1.414 1.414c.2292694-.2391441.57616192-.32411331.89-.218l5.3 1.854-4.552 4.555-1.851-5.287c-.11128248-.3170912-.02814278-.669947.213-.904zm2.369 8.286 5.917-5.917 3.826 1.339-8.405 8.4zm5.669 2.329 2.577-2.577 23.223 23.223-2.582 2.582zm39.17 29.929-6.659 6.659c-.7135129.7117594-1.8684871.7117594-2.582 0l-4.629-4.621 9.244-9.244 4.621 4.621c.7137568.7138575.7137568 1.8711425 0 2.585zm-6.04-8.618-9.242 9.242-2.581-2.581 9.242-9.242zm-3.995-4-1.916 1.916-23.228-23.223 1.916-1.916z" fill-rule="nonzero" fill="#000000" data-original="#428dff" style="" class=""/><path id="Shape" d="m45 0c-8.2842712 0-15 6.71572875-15 15 0 8.2842712 6.7157288 15 15 15s15-6.7157288 15-15c-.0093685-8.28038757-6.7196124-14.99063148-15-15zm0 28c-7.1797017 0-13-5.8202983-13-13 0-7.17970175 5.8202983-13 13-13s13 5.82029825 13 13c-.008266 7.1762751-5.8237249 12.991734-13 13z" fill-rule="nonzero" fill="#000000" data-original="#428dff" style="" class=""/><path id="Shape" d="m52 12h-4v-4c0-1.65685425-1.3431458-3-3-3s-3 1.34314575-3 3v4h-4c-1.6568542 0-3 1.3431458-3 3s1.3431458 3 3 3h4v4c0 1.6568542 1.3431458 3 3 3s3-1.3431458 3-3v-4h4c1.6568542 0 3-1.3431458 3-3s-1.3431458-3-3-3zm0 4h-5c-.5522847 0-1 .4477153-1 1v5c0 .5522847-.4477153 1-1 1s-1-.4477153-1-1v-5c0-.5522847-.4477153-1-1-1h-5c-.5522847 0-1-.4477153-1-1s.4477153-1 1-1h5c.5522847 0 1-.4477153 1-1v-5c0-.55228475.4477153-1 1-1s1 .44771525 1 1v5c0 .5522847.4477153 1 1 1h5c.5522847 0 1 .4477153 1 1s-.4477153 1-1 1z" fill-rule="nonzero" fill="#000000" data-original="#428dff" style="" class=""/></g></g></g></g></svg>
